<svg xmlns="http://www.w3.org/2000/svg" viewBox="0 0 500 500"><g id="freepik--background-simple--inject-47"><path d="M482.77,243.25c-5.19,43.91-25.23,94.95-65.27,118.4C357,397.09,362.07,451.6,244,475.29a243,243,0,0,1-52.35,4.95,202.65,202.65,0,0,1-25.7-2.1c-75-11-125.54-63.12-144.06-126.09C-2.5,269.24,46.19,215,78.46,182.37S134.36,47.93,250.25,23.72a235.45,235.45,0,0,1,53.8-5.11c41.24,1,86.21,14.55,117.33,42.81q3.51,3.18,6.83,6.59C471.46,112.41,489.84,183.4,482.77,243.25Z" style="fill:#92E3A9"></path><path d="M482.77,243.25c-5.19,43.91-25.23,94.95-65.27,118.4C357,397.09,362.07,451.6,244,475.29a243,243,0,0,1-52.35,4.95,202.65,202.65,0,0,1-25.7-2.1c-75-11-125.54-63.12-144.06-126.09C-2.5,269.24,46.19,215,78.46,182.37S134.36,47.93,250.25,23.72a235.45,235.45,0,0,1,53.8-5.11c41.24,1,86.21,14.55,117.33,42.81q3.51,3.18,6.83,6.59C471.46,112.41,489.84,183.4,482.77,243.25Z" style="fill:#fff;opacity:0.7000000000000001"></path></g><g id="freepik--Floor--inject-47"><line x1="17.17" y1="443.33" x2="463.79" y2="443.33" style="fill:none;stroke:#263238;stroke-linecap:round;stroke-linejoin:round"></line></g><g id="freepik--Picture--inject-47"><g style="opacity:0.30000000000000004"><rect x="361.95" y="39.1" width="112.42" height="158.67" style="fill:none;stroke:#000;stroke-linecap:round;stroke-linejoin:round"></rect><path d="M362,143.88c9.47-10.11,21.67-28,32-59.15C402.77,58,407.11,45.1,409.18,39.1" style="fill:none;stroke:#000;stroke-linecap:round;stroke-linejoin:round"></path><path d="M428.28,39.1c-4.62,18.94-13.45,61.44-11.06,101.39q.33,5.46,1.16,10.59a115.74,115.74,0,0,0,18.78,46.69" style="fill:none;stroke:#000;stroke-linecap:round;stroke-linejoin:round"></path><path d="M474.38,105.35c-13.95,9.51-36,25.76-56,45.73-14.08,14.07-27.15,30-35.62,46.69" style="fill:none;stroke:#000;stroke-linecap:round;stroke-linejoin:round"></path><path d="M445.24,39.1c-6.52,17.4-17.6,58.74,29.14,48.62" style="fill:none;stroke:#000;stroke-linecap:round;stroke-linejoin:round"></path><path d="M362,50.51c9.66,10.86,22.34,29,16.42,44.73-3.61,9.57-10,8.51-16.42,3.73" style="fill:none;stroke:#000;stroke-linecap:round;stroke-linejoin:round"></path><path d="M474.38,139.19c-11.54,8.56-26.08,22.67-21.51,37a75.93,75.93,0,0,0,11.07,21.62" style="fill:none;stroke:#000;stroke-linecap:round;stroke-linejoin:round"></path><rect x="361.95" y="39.1" width="112.42" height="158.67" style="fill:none;stroke:#000;stroke-linecap:round;stroke-linejoin:round"></rect><path d="M362,143.88c9.47-10.11,21.67-28,32-59.15C402.77,58,407.11,45.1,409.18,39.1" style="fill:none;stroke:#000;stroke-linecap:round;stroke-linejoin:round"></path><path d="M428.28,39.1c-4.62,18.94-13.45,61.44-11.06,101.39q.33,5.46,1.16,10.59a115.74,115.74,0,0,0,18.78,46.69" style="fill:none;stroke:#000;stroke-linecap:round;stroke-linejoin:round"></path><path d="M474.38,105.35c-13.95,9.51-36,25.76-56,45.73-14.08,14.07-27.15,30-35.62,46.69" style="fill:none;stroke:#000;stroke-linecap:round;stroke-linejoin:round"></path><path d="M445.24,39.1c-6.52,17.4-17.6,58.74,29.14,48.62" style="fill:none;stroke:#000;stroke-linecap:round;stroke-linejoin:round"></path><path d="M362,50.51c9.66,10.86,22.34,29,16.42,44.73-3.61,9.57-10,8.51-16.42,3.73" style="fill:none;stroke:#000;stroke-linecap:round;stroke-linejoin:round"></path><path d="M474.38,139.19c-11.54,8.56-26.08,22.67-21.51,37a75.93,75.93,0,0,0,11.07,21.62" style="fill:none;stroke:#000;stroke-linecap:round;stroke-linejoin:round"></path><circle cx="389.11" cy="147.12" r="14.85" style="fill:none;stroke:#000;stroke-linecap:round;stroke-linejoin:round"></circle><path d="M459.73,64.39a6.17,6.17,0,1,1-6.17-6.17A6.17,6.17,0,0,1,459.73,64.39Z" style="fill:none;stroke:#000;stroke-linecap:round;stroke-linejoin:round"></path><rect x="356.89" y="33.08" width="122.95" height="170.49" style="fill:none;stroke:#000;stroke-linecap:round;stroke-linejoin:round"></rect></g></g><g id="freepik--Window--inject-47"><path d="M301.53,11.57a5.37,5.37,0,0,0-5.08,3.67H33.26a5.39,5.39,0,1,0,0,3.44H296.45a5.38,5.38,0,1,0,5.08-7.11Z" style="opacity:0.30000000000000004"></path><g style="opacity:0.30000000000000004"><path d="M95.51,19.65c3.75,91.25,7,183.37,11,274.28l-.39,17.82s-16.87,0-25.75.89-22.64.89-32.41.89S32.83,310,32.83,310l.64-16.07c2-90.87,4.09-183,5.48-274.26" style="fill:none;stroke:#000;stroke-linejoin:round"></path><line x1="53.45" y1="278.85" x2="53.41" y2="289.59" style="fill:none;stroke:#000;stroke-linejoin:round"></line><line x1="54.37" y1="69.52" x2="53.49" y2="269.31" style="fill:none;stroke:#000;stroke-linejoin:round"></line><line x1="54.6" y1="17.63" x2="54.4" y2="63.56" style="fill:none;stroke:#000;stroke-linejoin:round"></line><line x1="69.73" y1="122.58" x2="67.72" y2="255.6" style="fill:none;stroke:#000;stroke-linejoin:round"></line><line x1="71.3" y1="18.82" x2="69.86" y2="114.26" style="fill:none;stroke:#000;stroke-linejoin:round"></line><line x1="83.86" y1="159.57" x2="84.42" y2="283.03" style="fill:none;stroke:#000;stroke-linejoin:round"></line><line x1="83.46" y1="71.91" x2="83.81" y2="149.44" style="fill:none;stroke:#000;stroke-linejoin:round"></line><line x1="83.23" y1="20.02" x2="83.42" y2="62.36" style="fill:none;stroke:#000;stroke-linejoin:round"></line></g><g style="opacity:0.30000000000000004"><path d="M231.67,19.65c-3.61,96.61-8.2,194.2-11.66,290.3,0,0,11.49,1.74,18.89,1.74h37.7a108.09,108.09,0,0,0,17.46-1.81c-1.7-96-2.85-193.62-5.83-290.23" style="fill:none;stroke:#000;stroke-linejoin:round"></path><line x1="273.73" y1="278.85" x2="273.77" y2="289.59" style="fill:none;stroke:#000;stroke-linejoin:round"></line><line x1="272.81" y1="69.52" x2="273.68" y2="269.31" style="fill:none;stroke:#000;stroke-linejoin:round"></line><line x1="272.58" y1="17.63" x2="272.78" y2="63.56" style="fill:none;stroke:#000;stroke-linejoin:round"></line><line x1="257.45" y1="122.58" x2="259.46" y2="255.6" style="fill:none;stroke:#000;stroke-linejoin:round"></line><line x1="255.88" y1="18.82" x2="257.32" y2="114.26" style="fill:none;stroke:#000;stroke-linejoin:round"></line><line x1="243.32" y1="159.57" x2="242.76" y2="283.03" style="fill:none;stroke:#000;stroke-linejoin:round"></line><line x1="243.72" y1="71.91" x2="243.37" y2="149.44" style="fill:none;stroke:#000;stroke-linejoin:round"></line><line x1="243.95" y1="20.02" x2="243.76" y2="62.36" style="fill:none;stroke:#000;stroke-linejoin:round"></line></g><g style="opacity:0.30000000000000004"><polyline points="97.18 45.58 123.67 45.58 123.67 76.49 98.95 76.49" style="fill:none;stroke:#000;stroke-linejoin:round"></polyline><rect x="128.29" y="45.66" width="27.69" height="31" style="fill:none;stroke:#000;stroke-linejoin:round"></rect></g><g style="opacity:0.30000000000000004"><polyline points="230.35 45.58 203.87 45.58 203.87 76.49 228.59 76.49" style="fill:none;stroke:#000;stroke-linejoin:round"></polyline><rect x="171.56" y="45.66" width="27.69" height="31" transform="translate(370.81 122.31) rotate(180)" style="fill:none;stroke:#000;stroke-linejoin:round"></rect></g><polyline points="101.55 186.01 156.68 186.01 156.68 93.36 99.13 93.36" style="fill:none;stroke:#000;stroke-linejoin:round;opacity:0.30000000000000004"></polyline><polyline points="227.56 92.57 171.22 92.57 171.22 186.01 223.32 186.01" style="fill:none;stroke:#000;stroke-linejoin:round;opacity:0.30000000000000004"></polyline><polyline points="103.37 207.99 156.68 207.99 156.68 301.12 107.41 301.12" style="fill:none;stroke:#000;stroke-linejoin:round;opacity:0.30000000000000004"></polyline><polyline points="223.93 207.21 171.22 207.21 171.22 301.99 219.28 301.99" style="fill:none;stroke:#000;stroke-linejoin:round;opacity:0.30000000000000004"></polyline><line x1="107.17" y1="307.9" x2="220.01" y2="307.9" style="fill:none;stroke:#000;stroke-linejoin:round;opacity:0.30000000000000004"></line><line x1="96.96" y1="34.86" x2="230.29" y2="34.86" style="fill:none;stroke:#000;stroke-linejoin:round;opacity:0.30000000000000004"></line><line x1="163.94" y1="35.5" x2="163.94" y2="306.63" style="fill:none;stroke:#000;stroke-linejoin:round;opacity:0.30000000000000004"></line><line x1="98.65" y1="86.19" x2="228.34" y2="86.19" style="fill:none;stroke:#000;stroke-linejoin:round;opacity:0.30000000000000004"></line></g><g id="freepik--Plant--inject-47"><path d="M399.29,291.26s-2.71,7.45-8.47,8.47-15.93-10.17-9.49-15.93S396.58,287.19,399.29,291.26Z" style="fill:#92E3A9"></path><path d="M408.1,254.65s-8.47,20.68-5.08,30.84,24.4,17.63,30.5,4.41S426.06,258,421,254,409.8,251.26,408.1,254.65Z" style="fill:#92E3A9"></path><path d="M457.58,263.47S443,276.68,441.31,289.9s8.14,18,18.3,16.27,15.25-27.45,12.2-39.32S457.58,263.47,457.58,263.47Z" style="fill:#92E3A9"></path><path d="M460.29,336.67s-16.27.68-16.94,8.47,7.11,9.49,14.91,2.71S467.07,337,460.29,336.67Z" style="fill:#92E3A9"></path><path d="M443.62,347s12.82-5.87,18.59-6.89" style="fill:none;stroke:#263238;stroke-miterlimit:10"></path><path d="M463.92,387.67s-11.95-11.06-18-6-1.71,11.73,8.59,12.48S468.46,392.72,463.92,387.67Z" style="fill:#92E3A9"></path><path d="M444.84,383.13s13.19,5,18,8.33" style="fill:none;stroke:#263238;stroke-miterlimit:10"></path><path d="M400.89,384.42s16.47-15.25,24.75-8.34S428,392.26,413.8,393.3,394.63,391.37,400.89,384.42Z" style="fill:#92E3A9"></path><path d="M427.19,378.15S409,385,402.39,389.64" style="fill:none;stroke:#263238;stroke-miterlimit:10"></path><path d="M420,352.94s-1.69,8.13-7.79,11.18S395.22,360.73,401,350.9,416.91,348.87,420,352.94Z" style="fill:#92E3A9"></path><path d="M405.73,327.52s-3.05-6.78-14.91-2.37-16.61,11.18-9.15,13.55S405.73,327.52,405.73,327.52Z" style="fill:#92E3A9"></path><path d="M403.46,327.21s-12.57,1.36-19.36,7.13" style="fill:none;stroke:#263238;stroke-miterlimit:10"></path><path d="M439.62,246.18s2,4.75,6.1,3.73,5.08-7.12,11.52-5.42,11.86,9.15,11.86,5.76-8.13-12.2-17.28-12.2S440,241.78,439.62,246.18Z" style="fill:#92E3A9"></path><path d="M405.73,327.52s14.59-2.8,20.67,13.4a45.41,45.41,0,0,1,1.52,5" style="fill:none;stroke:#263238;stroke-miterlimit:10"></path><path d="M466.63,311.82s3.05-6.78,14.91-2.37,16.61,11.18,9.15,13.55S466.63,311.82,466.63,311.82Z" style="fill:#92E3A9"></path><path d="M469.34,312.27s12.23-.68,18,6.45" style="fill:none;stroke:#263238;stroke-miterlimit:10"></path><path d="M466.63,311.82a18.75,18.75,0,0,0-10.1,1.38" style="fill:none;stroke:#263238;stroke-miterlimit:10"></path><path d="M413.51,299.66c-7.16-7.3-14.22-8.4-14.22-8.4s-10.44-2.77-14.51,1" style="fill:none;stroke:#263238;stroke-miterlimit:10"></path><line x1="414.96" y1="262.12" x2="414.32" y2="259.29" style="fill:none;stroke:#263238;stroke-miterlimit:10"></line><path d="M431.46,411.94s1.52-58.36,0-76.08-8.61-38.49-8.61-38.49l-7.22-32.25" style="fill:none;stroke:#263238;stroke-miterlimit:10"></path><line x1="461.58" y1="274.65" x2="462.89" y2="271.85" style="fill:none;stroke:#263238;stroke-miterlimit:10"></line><path d="M435,411.88s.5-53.23,2.53-68.43,10.13-39,10.13-39l12.43-26.64" style="fill:none;stroke:#263238;stroke-miterlimit:10"></path><path d="M443.62,347s-3.55,30.52-5.57,64.95" style="fill:none;stroke:#263238;stroke-miterlimit:10"></path><path d="M426.4,411.88s1-48.68-1-55.26-5.43-3.68-5.43-3.68-9.37,1.1-12.77,6.53" style="fill:none;stroke:#263238;stroke-miterlimit:10"></path><path d="M428.72,349.67c2.65,14.85.21,62.26.21,62.26" style="fill:none;stroke:#263238;stroke-miterlimit:10"></path><path d="M453.66,314.79a21.12,21.12,0,0,0-7.7,10.43c-6.08,16.21-5.38,86.73-5.38,86.73" style="fill:none;stroke:#263238;stroke-miterlimit:10"></path><path d="M415.27,301.59a47.92,47.92,0,0,1,8.6,15.53c8.1,23.3,11.14,83.62,9.62,94.76" style="fill:none;stroke:#263238;stroke-miterlimit:10"></path><path d="M435.85,323.39c-.49,29.4-.84,88.49-.84,88.49" style="fill:none;stroke:#263238;stroke-miterlimit:10"></path><path d="M435.91,319.74c.34-19.44.73-38.47,1.12-48.7,1-26.34,2.59-24.86,2.59-24.86s1.87-5.91,12.4-5.23" style="fill:none;stroke:#263238;stroke-miterlimit:10"></path><path d="M422.94,341.94s-8.47-7.56-5.08-11.28,24.4-6.44,30.5-1.61-7.46,11.65-12.54,13.13S424.64,343.17,422.94,341.94Z" style="fill:#92E3A9"></path><path d="M430.77,335.75a14.56,14.56,0,0,0-.19,2.26" style="fill:none;stroke:#263238;stroke-miterlimit:10"></path><path d="M433.68,326.93a38.14,38.14,0,0,0-2.17,5.61" style="fill:none;stroke:#263238;stroke-miterlimit:10"></path><path d="M422.94,391.34s-8.47-7.56-5.08-11.28,24.4-6.44,30.5-1.61-7.46,11.65-12.54,13.13S424.64,392.57,422.94,391.34Z" style="fill:#92E3A9"></path><path d="M433.68,376.33s-3.1,6.2-3.1,11.08" style="fill:none;stroke:#263238;stroke-miterlimit:10"></path><path d="M429.25,370.44s-5.75-5.13-3.45-7.65,16.57-4.37,20.71-1.09-5.06,7.9-8.52,8.91S430.4,371.28,429.25,370.44Z" style="fill:#92E3A9"></path><path d="M436.54,360.25s-2.11,4.22-2.11,7.52" style="fill:none;stroke:#263238;stroke-miterlimit:10"></path><rect x="421.29" y="403.48" width="22.94" height="50.86" style="fill:#263238;stroke:#263238;stroke-miterlimit:10"></rect></g><g id="freepik--Characters--inject-47"><path d="M260.55,457.17s-.94,3.48,6.1,3.27,12.86-1,15-1.12,5.21.51,10.11.31,4.8-1.94,3.88-2.66a6.72,6.72,0,0,0-2-1s-24.19.82-24.7.92S260.55,457.17,260.55,457.17Z" style="fill:#263238;stroke:#263238;stroke-linecap:round;stroke-linejoin:round"></path><path d="M272.35,368.58s1.81,16.52,5.08,35.58S280,444.28,280,444.28a39.39,39.39,0,0,1-8.71,6c-5.81,3.09-12.53,4.72-10.71,6.9s8.53,1.63,12,1.63,2.72-1.27,10-.91,10.89.73,12-3.08-2.17-8.9-1.63-13.25.91-28.32,2.36-40.48A154.63,154.63,0,0,0,296.49,374C296.13,367.5,272.35,368.58,272.35,368.58Z" style="fill:#a8a8a8;stroke:#263238;stroke-linecap:round;stroke-linejoin:round"></path><path d="M280.23,441.15s9.18.31,12.73,1.84l.51-6.53a23.67,23.67,0,0,0-5.57-2.75c-2.55-.72-7.88.2-7.88.2Z" style="fill:#263238;stroke:#263238;stroke-linecap:round;stroke-linejoin:round"></path><path d="M264.51,453.81s3.77,0,5.31,1.12a6.61,6.61,0,0,1,2,3.47,9.34,9.34,0,0,0,3.37-.1c1.42-.41,2.24-.71,2.24-.71a45.18,45.18,0,0,0-2.35-5.72,13.43,13.43,0,0,0-2.14-2.65S265.53,451.87,264.51,453.81Z" style="fill:#263238;stroke:#263238;stroke-linecap:round;stroke-linejoin:round"></path><path d="M65.09,377.68a37.7,37.7,0,0,0-2.56,3.21c-.41.77.65,1.49,1.57,1.21S67,378.59,67,378.59s-.11,1.57-.1,2.06.66.88,1.24-.09,1.21-3.15,1.66-3.54S66.85,376.75,65.09,377.68Z" style="fill:#a8a8a8;stroke:#263238;stroke-linecap:round;stroke-linejoin:round"></path><path d="M68.2,373.63s-5.37,3-6.56,4.3-1.55,2.63-.72,3,2.27-1,3-1.91,5.38-3.7,5.38-3.7Z" style="fill:#a8a8a8;stroke:#263238;stroke-linecap:round;stroke-linejoin:round"></path><path d="M83.05,296.59,79,332l-6.26,37A75.83,75.83,0,0,0,67,374.18c-.81,1.08-5.41,5-4.59,6.12s2.17.82,3.53-.82,7.6-4.22,7.6-4.22a37.43,37.43,0,0,0-1.37,3.82c-.54,1.9-.27,4.35,1.37,3s1.63-3.27,2.17-4.36a27.16,27.16,0,0,0,3-5.44,15.62,15.62,0,0,0,1.09-5.72c0-.81,11.43-33.21,11.43-33.21s1.9-19.32-1.09-26.4S83.05,296.59,83.05,296.59Z" style="fill:#a8a8a8;stroke:#263238;stroke-linecap:round;stroke-linejoin:round"></path><path d="M94.85,457.8S89.72,461.89,91,464s6.89,3.31,11.26,1.45,4.9-3.31,6.75-4.1,5.17-2.65,5.3-4.64-2.12-3-3.18-3.18S100.78,452.92,94.85,457.8Z" style="fill:#fff;stroke:#263238;stroke-linecap:round;stroke-linejoin:round"></path><path d="M95.08,390.84s1.37,13.94,1.83,17.83-1.15,7.08.45,15.08,3.89,22.17,3.89,22.17l-2.06,5.94s-3,3.88-4.34,5.94-3.66,2.06-2.74,4.57,7.08,3,9.59,1.83,4.35-3.43,5.72-4.57,2.69-.4,4.57-2.74c.91-1.15.45-4.34-.23-5.94a16.46,16.46,0,0,1-.91-4.12s.45-28.33.68-31.08,2.74-22.39,2.74-22.39Z" style="fill:#a8a8a8;stroke:#263238;stroke-linecap:round;stroke-linejoin:round"></path><path d="M114.27,393.36l-19.19-2.52s1.37,13.94,1.83,17.83-1.15,7.08.45,15.08,3.89,22.17,3.89,22.17a6.25,6.25,0,0,0,6.4,2.86,9.49,9.49,0,0,0,3.29-1.2c-.07-.45-.09-.75-.09-.75s.45-28.33.68-31.08S114.27,393.36,114.27,393.36Z" style="fill:#263238;stroke:#263238;stroke-linecap:round;stroke-linejoin:round"></path><path d="M93,459.4l5.71.23,3,4.57,5.72-4.57-2.74-2.51L100.1,456l-2-2.28S93.93,456.43,93,459.4Z" style="fill:#fff;stroke:#263238;stroke-linecap:round;stroke-linejoin:round"></path><path d="M98.46,461s-2.39,1.32-2.25,2.12a1.74,1.74,0,0,0,1.19,1.46" style="fill:none;stroke:#263238;stroke-linecap:round;stroke-linejoin:round"></path><path d="M95.94,460.3s-2.51,1.45-2.25,2.51l.26,1.06" style="fill:none;stroke:#263238;stroke-linecap:round;stroke-linejoin:round"></path><path d="M94,459.5s-2.24,2.3-1.84,2.87" style="fill:none;stroke:#263238;stroke-linecap:round;stroke-linejoin:round"></path><path d="M137.11,457.8s5.13,4.09,3.8,6.21-6.88,3.31-11.25,1.45-4.9-3.31-6.76-4.1-5.16-2.65-5.3-4.64,2.12-3,3.18-3.18S131.18,452.92,137.11,457.8Z" style="fill:#fff;stroke:#263238;stroke-linecap:round;stroke-linejoin:round"></path><path d="M136.88,390.84s-1.37,13.94-1.83,17.83,1.14,7.08-.46,15.08-3.88,22.17-3.88,22.17l2,5.94s3,3.88,4.35,5.94,3.65,2.06,2.74,4.57-7.09,3-9.6,1.83-4.34-3.43-5.71-4.57-2.69-.4-4.57-2.74c-.92-1.15-.46-4.34.23-5.94a17,17,0,0,0,.91-4.12s-.46-28.33-.69-31.08-2.74-22.39-2.74-22.39Z" style="fill:#a8a8a8;stroke:#263238;stroke-linecap:round;stroke-linejoin:round"></path><path d="M130.71,445.92s2.28-14.17,3.88-22.17,0-11.2.46-15.08,1.83-17.83,1.83-17.83l-19.2,2.52s2.52,19.65,2.74,22.39.69,31.08.69,31.08a.87.87,0,0,1,0,.11c2.36.79,5.64,1.5,8.22.57.55-.2,1.12-.43,1.7-.68Z" style="fill:#263238;stroke:#263238;stroke-linecap:round;stroke-linejoin:round"></path><path d="M138.93,459.4l-5.71.23-3,4.57-5.71-4.57,2.74-2.51,4.57-1.15,2.06-2.28S138,456.43,138.93,459.4Z" style="fill:#fff;stroke:#263238;stroke-linecap:round;stroke-linejoin:round"></path><path d="M133.5,461s2.38,1.32,2.25,2.12a1.74,1.74,0,0,1-1.19,1.46" style="fill:none;stroke:#263238;stroke-linecap:round;stroke-linejoin:round"></path><path d="M136,460.3s2.52,1.45,2.26,2.51l-.27,1.06" style="fill:none;stroke:#263238;stroke-linecap:round;stroke-linejoin:round"></path><path d="M138,459.5s2.24,2.3,1.85,2.87" style="fill:none;stroke:#263238;stroke-linecap:round;stroke-linejoin:round"></path><path d="M134.23,290.33a31,31,0,0,1,3.09,7.52c1.62,5.33,9,24.65,9,24.65l-.13,12.17s-7.46,2.11-10.34-1.5c-2.54-3.19-5.66-12.75-5.66-12.75Z" style="fill:#a8a8a8;stroke:#263238;stroke-linecap:round;stroke-linejoin:round"></path><path d="M100.19,287.43s-17.14,8.07-17.14,9.16,8.17,36.75,8.17,36.75-10.89,50.91-11.16,51.72,8.86,12.71,31.47,13.55c24.45.92,36.86-11.64,40.39-13.82l-19.32-55,1.63-39.47-17.42-3.81Z" style="fill:#fff;stroke:#263238;stroke-linecap:round;stroke-linejoin:round"></path><path d="M89.84,364.48a40.78,40.78,0,0,1-5.29,1.24,43.06,43.06,0,0,0,5.06,4.17A46.06,46.06,0,0,1,89.84,364.48Z" style="fill:#92E3A9;stroke:#263238;stroke-linecap:round;stroke-linejoin:round"></path><path d="M94.91,368a39.27,39.27,0,0,1-5,2.1,44.07,44.07,0,0,0,5.52,3.25A46.92,46.92,0,0,1,94.91,368Z" style="fill:#92E3A9;stroke:#263238;stroke-linecap:round;stroke-linejoin:round"></path><path d="M100.37,370.7a43.39,43.39,0,0,1-4.53,2.86,43.66,43.66,0,0,0,5.85,2.32A45.24,45.24,0,0,1,100.37,370.7Z" style="fill:#92E3A9;stroke:#263238;stroke-linecap:round;stroke-linejoin:round"></path><path d="M106.09,372.47a44.11,44.11,0,0,1-4,3.53,44.18,44.18,0,0,0,6.08,1.39A43.47,43.47,0,0,1,106.09,372.47Z" style="fill:#92E3A9;stroke:#263238;stroke-linecap:round;stroke-linejoin:round"></path><path d="M112,373.36a43.59,43.59,0,0,1-3.42,4.09,42.77,42.77,0,0,0,6.19.46A43.87,43.87,0,0,1,112,373.36Z" style="fill:#92E3A9;stroke:#263238;stroke-linecap:round;stroke-linejoin:round"></path><path d="M117.91,373.36a43.87,43.87,0,0,1-2.77,4.55,42.77,42.77,0,0,0,6.19-.46A42.1,42.1,0,0,1,117.91,373.36Z" style="fill:#92E3A9;stroke:#263238;stroke-linecap:round;stroke-linejoin:round"></path><path d="M123.79,372.47a43.54,43.54,0,0,1-2.07,4.92A44.18,44.18,0,0,0,127.8,376,42.68,42.68,0,0,1,123.79,372.47Z" style="fill:#92E3A9;stroke:#263238;stroke-linecap:round;stroke-linejoin:round"></path><path d="M129.51,370.7a45.24,45.24,0,0,1-1.32,5.18,43.66,43.66,0,0,0,5.85-2.32A41.39,41.39,0,0,1,129.51,370.7Z" style="fill:#92E3A9;stroke:#263238;stroke-linecap:round;stroke-linejoin:round"></path><path d="M135,368a46.88,46.88,0,0,1-.55,5.35,44,44,0,0,0,5.51-3.25A39.9,39.9,0,0,1,135,368Z" style="fill:#92E3A9;stroke:#263238;stroke-linecap:round;stroke-linejoin:round"></path><path d="M140,364.48a44,44,0,0,1,.23,5.41,43.15,43.15,0,0,0,5.07-4.17A40.54,40.54,0,0,1,140,364.48Z" style="fill:#92E3A9;stroke:#263238;stroke-linecap:round;stroke-linejoin:round"></path><polygon points="90.34 292.76 85.14 295.23 88.47 297.18 90.34 292.76" style="fill:#92E3A9;stroke:#263238;stroke-linecap:round;stroke-linejoin:round"></polygon><polygon points="94.54 294.73 88.76 297.41 93.25 300.98 94.54 294.73" style="fill:#92E3A9;stroke:#263238;stroke-linecap:round;stroke-linejoin:round"></polygon><polygon points="99.32 298.52 93.53 301.21 98.02 304.77 99.32 298.52" style="fill:#92E3A9;stroke:#263238;stroke-linecap:round;stroke-linejoin:round"></polygon><path d="M104.58,302.7a8.42,8.42,0,0,0-1.93.29l-1.44.67L98.31,305l1.81,1.44.35,1.42,2.07-1.76a7,7,0,0,0,1.9-2.43A4.93,4.93,0,0,0,104.58,302.7Z" style="fill:#92E3A9;stroke:#263238;stroke-linecap:round;stroke-linejoin:round"></path><polygon points="106.77 309.65 100.56 308.21 101.92 313.78 106.77 309.65" style="fill:#92E3A9;stroke:#263238;stroke-linecap:round;stroke-linejoin:round"></polygon><polygon points="108.22 315.57 102 314.14 103.36 319.71 108.22 315.57" style="fill:#92E3A9;stroke:#263238;stroke-linecap:round;stroke-linejoin:round"></polygon><polygon points="109.66 321.5 103.45 320.07 104.81 325.63 109.66 321.5" style="fill:#92E3A9;stroke:#263238;stroke-linecap:round;stroke-linejoin:round"></polygon><polygon points="111.11 327.43 104.89 325.99 106.25 331.56 111.11 327.43" style="fill:#92E3A9;stroke:#263238;stroke-linecap:round;stroke-linejoin:round"></polygon><polygon points="112.55 333.35 106.34 331.92 107.69 337.48 112.55 333.35" style="fill:#92E3A9;stroke:#263238;stroke-linecap:round;stroke-linejoin:round"></polygon><polygon points="114 339.28 107.78 337.84 109.14 343.41 114 339.28" style="fill:#92E3A9;stroke:#263238;stroke-linecap:round;stroke-linejoin:round"></polygon><polygon points="116.24 339.16 121.46 342.83 122.3 337.15 116.24 339.16" style="fill:#92E3A9;stroke:#263238;stroke-linecap:round;stroke-linejoin:round"></polygon><polygon points="117.13 333.11 122.35 336.78 123.19 331.1 117.13 333.11" style="fill:#92E3A9;stroke:#263238;stroke-linecap:round;stroke-linejoin:round"></polygon><polygon points="118.02 327.06 123.24 330.73 124.07 325.05 118.02 327.06" style="fill:#92E3A9;stroke:#263238;stroke-linecap:round;stroke-linejoin:round"></polygon><polygon points="118.91 321.01 124.13 324.68 124.96 318.99 118.91 321.01" style="fill:#92E3A9;stroke:#263238;stroke-linecap:round;stroke-linejoin:round"></polygon><polygon points="119.8 314.96 125.02 318.63 125.85 312.94 119.8 314.96" style="fill:#92E3A9;stroke:#263238;stroke-linecap:round;stroke-linejoin:round"></polygon><polygon points="120.69 308.9 125.91 312.58 126.74 306.89 120.69 308.9" style="fill:#92E3A9;stroke:#263238;stroke-linecap:round;stroke-linejoin:round"></polygon><path d="M121.57,302.85l5.23,3.67.52-3.59.54-1.09H126a11,11,0,0,0-1.88.09,8.81,8.81,0,0,0-1.28.49Z" style="fill:#92E3A9;stroke:#263238;stroke-linecap:round;stroke-linejoin:round"></path><polygon points="124.18 296.41 128.03 301.51 130.56 296.35 124.18 296.41" style="fill:#92E3A9;stroke:#263238;stroke-linecap:round;stroke-linejoin:round"></polygon><polygon points="126.89 290.92 130.73 296.02 133.27 290.86 126.89 290.92" style="fill:#92E3A9;stroke:#263238;stroke-linecap:round;stroke-linejoin:round"></polygon><path d="M116.65,319.52l1.4-20.76,8.33-10.14-9.57-2.1-16.62.91s-3.27,1.54-7,3.37L107,298.93l5.66,20.28Z" style="fill:#263238;stroke:#263238;stroke-linecap:round;stroke-linejoin:round"></path><path d="M115.12,380.44c-17.5.47-27.87-7.27-31.69-10.82-1.82,8.47-3.27,15.15-3.37,15.44-.27.82,8.86,12.71,31.47,13.55,24.45.92,36.86-11.64,40.39-13.82l-5.61-16A52.16,52.16,0,0,1,115.12,380.44Z" style="fill:#263238;stroke:#263238;stroke-linecap:round;stroke-linejoin:round"></path><path d="M147.09,371.05a48.2,48.2,0,0,1-32.28,12.14,57.61,57.61,0,0,1-32-10.6c-1.51,7-2.65,12.22-2.73,12.47-.27.82,8.86,12.71,31.47,13.55,24.45.92,36.86-11.64,40.39-13.82Z" style="fill:#92E3A9;stroke:#263238;stroke-linecap:round;stroke-linejoin:round"></path><path d="M118,281l-18.36-3.24s.54,8.64.54,9.72,9.42,7.91,9.42,7.91l2.14,6.73h3.06v-7.65l3.74-3.75C119.9,289.86,118,281,118,281Z" style="fill:#a8a8a8;stroke:#263238;stroke-linecap:round;stroke-linejoin:round"></path><path d="M94.62,243c-2.54,4.49-2.78,8.46-2.53,9.94s.06,2.66.18,3.54a15,15,0,0,1,.08,2.07s-2-1.54-3,2,1.28,6.38,3.15,7.61,2.93.54,2.93.54a9.11,9.11,0,0,0,2.68,8.63c4,3.67,10.54,11.39,14.41,10.19s10.61-4.67,12.78-8,2.53-9.95,2.44-11.72.16-5.15.16-5.15,3.11-4.91,2.68-10.09.87-9-6.34-13.76-17.55-4.24-22-2.32S96.34,239.92,94.62,243Z" style="fill:#a8a8a8;stroke:#263238;stroke-linecap:round;stroke-linejoin:round"></path><path d="M92.35,258.51l0,0Z" style="fill:#fff;stroke:#263238;stroke-linecap:round;stroke-linejoin:round"></path><path d="M130.57,252.5c-.29-3.57.23-6.48-1.79-9.52-.87,1.53-2.58,3.4-2.6,3.78s1,2.1,2,5.23c1,2.83,1.25,4.89,1.84,5.39A14.63,14.63,0,0,0,130.57,252.5Z" style="fill:#263238;stroke:#263238;stroke-linecap:round;stroke-linejoin:round"></path><path d="M127.72,241.63a19.23,19.23,0,0,0-3.49-2.89c-7.22-4.79-17.55-4.24-22-2.32a23.68,23.68,0,0,0-2.81,1.4.76.76,0,0,1,.11.14c.71,1,3.2,6,3.2,6s5.64-1.14,8.72-.75,11,2.27,12.46,2.31C125.06,245.55,127,242.72,127.72,241.63Z" style="fill:#263238;stroke:#263238;stroke-linecap:round;stroke-linejoin:round"></path><path d="M97.82,238.89a13.15,13.15,0,0,0-3.2,4.07c-2.54,4.49-2.78,8.46-2.53,9.94s.06,2.66.18,3.54a15,15,0,0,1,.08,2.07s3,2.6,3.06,1.28-.73-5,.43-8.83,4.43-4.87,4.34-6.94C100.11,242.12,98.3,240.42,97.82,238.89Z" style="fill:#263238;stroke:#263238;stroke-linecap:round;stroke-linejoin:round"></path><path d="M96,238.51a2.42,2.42,0,1,1-2.93.6A2.15,2.15,0,0,1,96,238.51Z" style="fill:#263238;stroke:#263238;stroke-linecap:round;stroke-linejoin:round"></path><path d="M92.87,237.2a1.2,1.2,0,0,1-.07,1.67,1.06,1.06,0,1,1-1.57-1.33A1.22,1.22,0,0,1,92.87,237.2Z" style="fill:#263238;stroke:#263238;stroke-linecap:round;stroke-linejoin:round"></path><path d="M91.14,236.17a1,1,0,1,1-1.23.25A.9.9,0,0,1,91.14,236.17Z" style="fill:#263238;stroke:#263238;stroke-linecap:round;stroke-linejoin:round"></path><path d="M89.57,234.83a1,1,0,1,1-1.24.26A.92.92,0,0,1,89.57,234.83Z" style="fill:#263238;stroke:#263238;stroke-linecap:round;stroke-linejoin:round"></path><path d="M105.89,234.06a2.42,2.42,0,1,1-2.78-1.11A2.14,2.14,0,0,1,105.89,234.06Z" style="fill:#263238;stroke:#263238;stroke-linecap:round;stroke-linejoin:round"></path><path d="M104,231.24a1.36,1.36,0,1,1-1.56-.62A1.21,1.21,0,0,1,104,231.24Z" style="fill:#263238;stroke:#263238;stroke-linecap:round;stroke-linejoin:round"></path><path d="M103.12,229.42a1,1,0,0,1-1.91.56,1,1,0,0,1,1.91-.56Z" style="fill:#263238;stroke:#263238;stroke-linecap:round;stroke-linejoin:round"></path><path d="M102.54,227.44a1,1,0,0,1-1.91.56,1,1,0,0,1,1.91-.56Z" style="fill:#263238;stroke:#263238;stroke-linecap:round;stroke-linejoin:round"></path><path d="M118,234.86a2.43,2.43,0,1,1-2.07-2.16C117.2,232.89,118.13,233.85,118,234.86Z" style="fill:#263238;stroke:#263238;stroke-linecap:round;stroke-linejoin:round"></path><path d="M117.41,231.5a1.36,1.36,0,1,1-1.16-1.2A1.2,1.2,0,0,1,117.41,231.5Z" style="fill:#263238;stroke:#263238;stroke-linecap:round;stroke-linejoin:round"></path><path d="M117.37,229.49a.91.91,0,0,1-1.09.63c-.54-.08-.94-.49-.87-.91a1,1,0,0,1,2,.28Z" style="fill:#263238;stroke:#263238;stroke-linecap:round;stroke-linejoin:round"></path><path d="M117.67,227.45a.91.91,0,0,1-1.1.62.8.8,0,1,1,1.1-.62Z" style="fill:#263238;stroke:#263238;stroke-linecap:round;stroke-linejoin:round"></path><path d="M126.89,240.15a2.43,2.43,0,1,1-.6-2.93A2.16,2.16,0,0,1,126.89,240.15Z" style="fill:#263238;stroke:#263238;stroke-linecap:round;stroke-linejoin:round"></path><path d="M128.2,237a1.36,1.36,0,1,1-.33-1.63A1.19,1.19,0,0,1,128.2,237Z" style="fill:#263238;stroke:#263238;stroke-linecap:round;stroke-linejoin:round"></path><path d="M129.25,235.29a1,1,0,1,1-.25-1.23A.89.89,0,0,1,129.25,235.29Z" style="fill:#263238;stroke:#263238;stroke-linecap:round;stroke-linejoin:round"></path><path d="M130.59,233.73a1,1,0,1,1-.25-1.24A.91.91,0,0,1,130.59,233.73Z" style="fill:#263238;stroke:#263238;stroke-linecap:round;stroke-linejoin:round"></path><path d="M131.22,248.11a2.43,2.43,0,1,1,.88-2.86A2.15,2.15,0,0,1,131.22,248.11Z" style="fill:#263238;stroke:#263238;stroke-linecap:round;stroke-linejoin:round"></path><path d="M133.87,246a1.36,1.36,0,1,1,.49-1.6A1.2,1.2,0,0,1,133.87,246Z" style="fill:#263238;stroke:#263238;stroke-linecap:round;stroke-linejoin:round"></path><path d="M135.61,245a1,1,0,1,1,.37-1.21A.91.91,0,0,1,135.61,245Z" style="fill:#263238;stroke:#263238;stroke-linecap:round;stroke-linejoin:round"></path><path d="M137.54,244.23a1,1,0,1,1,.37-1.21A.91.91,0,0,1,137.54,244.23Z" style="fill:#263238;stroke:#263238;stroke-linecap:round;stroke-linejoin:round"></path><path d="M109.5,266.28c0,1-.45,1.75-.94,1.74s-.86-.82-.83-1.8.45-1.75.94-1.74S109.53,265.3,109.5,266.28Z" style="fill:#263238"></path><path d="M120.08,267.2c0,1-.45,1.76-.94,1.74s-.86-.82-.83-1.79.46-1.76.94-1.74S120.11,266.23,120.08,267.2Z" style="fill:#263238"></path><path d="M111.34,268.69s-2.29,2.44-1.15,3.65,5.1,1.93,7,1-.44-4.58-.44-4.58" style="fill:none;stroke:#263238;stroke-linecap:round;stroke-linejoin:round"></path><path d="M104.48,262s1.52-1.42,5.91-.55" style="fill:none;stroke:#263238;stroke-linecap:round;stroke-linejoin:round;stroke-width:2px"></path><path d="M117.44,262.26s4-.17,5.4,1.49" style="fill:none;stroke:#263238;stroke-linecap:round;stroke-linejoin:round;stroke-width:2px"></path><path d="M107.46,274.76s3.86,3.81,10.28,1.21c0,0-2.76,3.3-5,4S107.46,274.76,107.46,274.76Z" style="fill:#fff;stroke:#263238;stroke-linecap:round;stroke-linejoin:round"></path><path d="M164,455.37s-3.57,4.65-.56,7.8,5,4.72,8.54,4.72,10.89-.26,15.09-3,3.93-4.73,6.56-6,8.14-1.31,10.5-4.6.39-5-1.44-5.77a11.9,11.9,0,0,0-4.07-.79Z" style="fill:#263238;stroke:#263238;stroke-linecap:round;stroke-linejoin:round"></path><path d="M180.3,439.64a16.28,16.28,0,0,1-6.41,8.9c-5.18,3.52-8.49,3.94-9.94,6.83s-1.45,4.35-.2,5.59a12,12,0,0,0,3.1,2.07,6.65,6.65,0,0,0,4.55,2.69c3.11.42,7-1.86,7-1.86a36,36,0,0,0,5.38-1.45c2.07-.83,4.35-3.72,5.39-4.55a36.44,36.44,0,0,1,4.76-3.11c1.24-.62,4.55-.2,7.24-3.93s-.83-13-.83-13Z" style="fill:#a8a8a8;stroke:#263238;stroke-linecap:round;stroke-linejoin:round"></path><path d="M166.85,463s-.83-1.17.74-2,6.17-3.41,6.7-4.07" style="fill:none;stroke:#263238;stroke-linecap:round;stroke-linejoin:round"></path><path d="M169.3,450.7s3,1.45,4.07,2.1-1.71,5.91-1.71,5.91,3.81-4.07,5.12-4.47S182,456,183,458.18a20.16,20.16,0,0,1,1.05,5.65,31.27,31.27,0,0,0,4.46-2.63,11,11,0,0,0,1.58-2.49s-2.37-6.83-5.65-9.19-10-2.23-10-2.23Z" style="fill:#263238;stroke:#263238;stroke-linecap:round;stroke-linejoin:round"></path><path d="M170.35,455.56a8.33,8.33,0,0,1-2.76,2.88c-1.44.66-2.75,1.05-2.75,2.76" style="fill:none;stroke:#263238;stroke-linecap:round;stroke-linejoin:round"></path><path d="M168.78,453.85a25,25,0,0,1-2.89,2.49c-1.18.79-2.63,1.05-2.63,3.68" style="fill:none;stroke:#263238;stroke-linecap:round;stroke-linejoin:round"></path><path d="M174.4,324.85l4.85,106.34s-2.67,0-2.67,1.69,1.94,9.94,1.94,9.94,9.21,3.14,15.26,1.69,8.47-1.35,8.47-1.35a22.27,22.27,0,0,1,.2-7c.73-4.11-1.16-5.66-1.16-7.84S211,332.12,211,332.12Z" style="fill:#263238;stroke:#263238;stroke-linecap:round;stroke-linejoin:round"></path><path d="M269,455.37s3.58,4.65.56,7.8-5,4.72-8.53,4.72-10.9-.26-15.1-3-3.93-4.73-6.56-6-8.13-1.31-10.5-4.6-.39-5,1.45-5.77a11.86,11.86,0,0,1,4.07-.79Z" style="fill:#263238;stroke:#263238;stroke-linecap:round;stroke-linejoin:round"></path><path d="M252.66,439.64a16.28,16.28,0,0,0,6.41,8.9c5.18,3.52,8.49,3.94,9.94,6.83s1.45,4.35.21,5.59a12.13,12.13,0,0,1-3.11,2.07,6.65,6.65,0,0,1-4.55,2.69c-3.11.42-7-1.86-7-1.86a36,36,0,0,1-5.38-1.45c-2.07-.83-4.35-3.72-5.38-4.55a37.84,37.84,0,0,0-4.76-3.11c-1.25-.62-4.56-.2-7.25-3.93s.83-13,.83-13Z" style="fill:#a8a8a8;stroke:#263238;stroke-linecap:round;stroke-linejoin:round"></path><path d="M266.11,463s.83-1.17-.74-2-6.17-3.41-6.69-4.07" style="fill:none;stroke:#263238;stroke-linecap:round;stroke-linejoin:round"></path><path d="M263.66,450.7s-3,1.45-4.07,2.1,1.71,5.91,1.71,5.91-3.81-4.07-5.12-4.47-5.25,1.71-6.17,3.94a20.16,20.16,0,0,0-1,5.65,31.27,31.27,0,0,1-4.46-2.63,10.85,10.85,0,0,1-1.57-2.49s2.36-6.83,5.64-9.19,10-2.23,10-2.23Z" style="fill:#263238;stroke:#263238;stroke-linecap:round;stroke-linejoin:round"></path><path d="M262.61,455.56a8.33,8.33,0,0,0,2.76,2.88c1.44.66,2.75,1.05,2.75,2.76" style="fill:none;stroke:#263238;stroke-linecap:round;stroke-linejoin:round"></path><path d="M264.19,453.85a24.6,24.6,0,0,0,2.88,2.49c1.19.79,2.63,1.05,2.63,3.68" style="fill:none;stroke:#263238;stroke-linecap:round;stroke-linejoin:round"></path><path d="M258.56,324.85l-4.85,106.34s2.67,0,2.67,1.69-1.94,9.94-1.94,9.94-9.2,3.14-15.26,1.69-8.46-1.35-8.46-1.35a22.12,22.12,0,0,0-.21-7c-.73-4.11,1.16-5.66,1.16-7.84S222,332.12,222,332.12Z" style="fill:#263238;stroke:#263238;stroke-linecap:round;stroke-linejoin:round"></path><path d="M283,231.18l4.3,2.08s16.15-9.72,20.81-14.89a97.63,97.63,0,0,1,7.58-7.7s-1.2-5.23-1.51-7.43,2.7-6.24,4-9.58,3.08-6.75,4.78-4.29,2,4.22,1.27,5.67l-.7,1.45s8.63-8.83,10.77-10.52,2.72.83,2.41,2.26l-.32,1.43s3.16-3.93,4.55-1.87-.49,4.77-.49,4.77,3.6,0,2.95,2.35a26.94,26.94,0,0,0-.82,3.57s2,.83,1.24,2.25-3,2.71-3.8,3.34-2.74,3.87-5.95,6.93a38.84,38.84,0,0,1-8.07,5.5s-6,13.44-14.74,24.07-20.89,17.63-23.13,19-6.39,3.38-9.5,3.48S265,252.59,265,252.59Z" style="fill:#a8a8a8;stroke:#263238;stroke-linecap:round;stroke-linejoin:round"></path><path d="M323.57,196.49s2.23,3.33,2.39,5.84-3.63,7.35-3.63,7.35" style="fill:none;stroke:#263238;stroke-linecap:round;stroke-linejoin:round"></path><line x1="336.43" y1="189.66" x2="330.55" y2="196.21" style="fill:none;stroke:#263238;stroke-linecap:round;stroke-linejoin:round"></line><line x1="340.49" y1="192.56" x2="333.74" y2="199.46" style="fill:none;stroke:#263238;stroke-linecap:round;stroke-linejoin:round"></line><line x1="342.62" y1="198.48" x2="336.4" y2="202.98" style="fill:none;stroke:#263238;stroke-linecap:round;stroke-linejoin:round"></line><line x1="328.47" y1="195.34" x2="337.43" y2="204.79" style="fill:none;stroke:#263238;stroke-linecap:round;stroke-linejoin:round"></line><path d="M139,323.39c3.36-3.8,8.87-2,11.78-2.65,3.16-.69,7-1.75,7-1.75l5.67,3.8s-5.07,4-9.4,6.76c-1.83,1.15-8.69,7.32-14.15,6.29a6.32,6.32,0,0,1-4.1-2.67" style="fill:#a8a8a8;stroke:#263238;stroke-linecap:round;stroke-linejoin:round"></path><path d="M152.94,233.65s-5.34,18-5.34,26.06,3,37.42,3,37.42-2,16.37-1.67,18,3,8,5,10c1.46,1.45,3.44,2.37,4.8,2.13a19.57,19.57,0,0,0,2.31,0c.37-.09,3.34-1.76,3.43-3.06s-.27-1.67-1-1.48a15.92,15.92,0,0,1-2.83.07,4.26,4.26,0,0,1-1.67-3.68,20.29,20.29,0,0,1,1-5.68c.67-2,2-5.34,2-5.34a36.4,36.4,0,0,0,1.67,6.68c1,2.34,3,3.67,3.34,1.67s.34-2.34,0-7-1-7-2.67-9.69-4.34-6.68-4.34-6.68,6.35-28.4,7.35-32.74A112.88,112.88,0,0,0,169,249l3-6Z" style="fill:#a8a8a8;stroke:#263238;stroke-linecap:round;stroke-linejoin:round"></path><path d="M242,154.25l26.17,16L288,231.42l-23,26.84L261.83,252l-.64,76.58s-14.22,6.85-37.83,6.85S172,329,172,329l4.43-76.73-31.63-20.64,30.78-69.31,34-10.21Z" style="fill:#92E3A9;stroke:#263238;stroke-linecap:round;stroke-linejoin:round"></path><polygon points="185.68 159.68 177.2 162.03 179.87 166.63 185.68 159.68" style="fill:#263238;stroke:#263238;stroke-linecap:round;stroke-linejoin:round;stroke-width:1.5px"></polygon><polygon points="190.05 168.7 180.13 167.25 184.26 176.88 190.05 168.7" style="fill:#263238;stroke:#263238;stroke-linecap:round;stroke-linejoin:round;stroke-width:1.5px"></polygon><polygon points="194.45 178.96 184.53 177.5 188.66 187.14 194.45 178.96" style="fill:#263238;stroke:#263238;stroke-linecap:round;stroke-linejoin:round;stroke-width:1.5px"></polygon><polygon points="198.85 189.21 188.92 187.76 193.05 197.4 198.85 189.21" style="fill:#263238;stroke:#263238;stroke-linecap:round;stroke-linejoin:round;stroke-width:1.5px"></polygon><path d="M202.81,200.28,198.65,199l-2.08-.63a4.94,4.94,0,0,0-2-.4,5.4,5.4,0,0,0-.58.1,5.23,5.23,0,0,1-.65-.08l.15.35,2.41,9.16Z" style="fill:#263238;stroke:#263238;stroke-linecap:round;stroke-linejoin:round;stroke-width:1.5px"></path><polygon points="205.66 211.08 196.06 208.19 198.73 218.32 205.66 211.08" style="fill:#263238;stroke:#263238;stroke-linecap:round;stroke-linejoin:round;stroke-width:1.5px"></polygon><polygon points="208.5 221.87 198.9 218.98 201.57 229.12 208.5 221.87" style="fill:#263238;stroke:#263238;stroke-linecap:round;stroke-linejoin:round;stroke-width:1.5px"></polygon><polygon points="211.35 232.66 201.74 229.77 204.41 239.91 211.35 232.66" style="fill:#263238;stroke:#263238;stroke-linecap:round;stroke-linejoin:round;stroke-width:1.5px"></polygon><polygon points="214.19 243.45 204.59 240.56 207.26 250.7 214.19 243.45" style="fill:#263238;stroke:#263238;stroke-linecap:round;stroke-linejoin:round;stroke-width:1.5px"></polygon><polygon points="217.03 254.24 207.43 251.35 210.1 261.49 217.03 254.24" style="fill:#263238;stroke:#263238;stroke-linecap:round;stroke-linejoin:round;stroke-width:1.5px"></polygon><polygon points="221.75 254.3 228.44 261.78 231.44 251.69 221.75 254.3" style="fill:#263238;stroke:#263238;stroke-linecap:round;stroke-linejoin:round;stroke-width:1.5px"></polygon><polygon points="224.95 243.56 231.64 251.04 234.64 240.96 224.95 243.56" style="fill:#263238;stroke:#263238;stroke-linecap:round;stroke-linejoin:round;stroke-width:1.5px"></polygon><polygon points="228.15 232.82 234.84 240.31 237.84 230.22 228.15 232.82" style="fill:#263238;stroke:#263238;stroke-linecap:round;stroke-linejoin:round;stroke-width:1.5px"></polygon><polygon points="231.35 222.08 238.04 229.57 241.04 219.48 231.35 222.08" style="fill:#263238;stroke:#263238;stroke-linecap:round;stroke-linejoin:round;stroke-width:1.5px"></polygon><polygon points="234.55 211.35 241.24 218.83 244.24 208.75 234.55 211.35" style="fill:#263238;stroke:#263238;stroke-linecap:round;stroke-linejoin:round;stroke-width:1.5px"></polygon><polygon points="237.75 200.61 244.44 208.09 247.44 198.01 237.75 200.61" style="fill:#263238;stroke:#263238;stroke-linecap:round;stroke-linejoin:round;stroke-width:1.5px"></polygon><path d="M242,189.43l2.16,3.62,1.08,1.81.54.9a2.79,2.79,0,0,0,.67.66,4.31,4.31,0,0,0,.61.37,4.28,4.28,0,0,1,.55.57l.12-.42,4.29-8.22Z" style="fill:#263238;stroke:#263238;stroke-linecap:round;stroke-linejoin:round;stroke-width:1.5px"></path><polygon points="247.21 179.5 252.36 188.12 257.22 178.78 247.21 179.5" style="fill:#263238;stroke:#263238;stroke-linecap:round;stroke-linejoin:round;stroke-width:1.5px"></polygon><polygon points="252.39 169.56 257.54 178.18 262.49 167.22 252.39 169.56" style="fill:#263238;stroke:#263238;stroke-linecap:round;stroke-linejoin:round;stroke-width:1.5px"></polygon><path d="M173.27,314.12c-.33,4.23-.47,6.78-.65,9.1,2.69.7,2,.37,3.49.85C175.22,320.85,173.92,317.34,173.27,314.12Z" style="fill:#263238;stroke:#263238;stroke-linecap:round;stroke-linejoin:round;stroke-width:1.5px"></path><path d="M183.79,317.25q-3.37,3.57-7,7c3.34.94,6.71,1.74,10.1,2.43C185.74,323.55,184.72,320.39,183.79,317.25Z" style="fill:#263238;stroke:#263238;stroke-linecap:round;stroke-linejoin:round;stroke-width:1.5px"></path><path d="M194,319.33c-2.09,2.55-4.26,5-6.52,7.49,3.39.67,6.8,1.26,10.23,1.71C196.42,325.47,195.18,322.42,194,319.33Z" style="fill:#263238;stroke:#263238;stroke-linecap:round;stroke-linejoin:round;stroke-width:1.5px"></path><path d="M204.4,320.7c-1.91,2.7-3.9,5.3-6,7.93,3.43.42,6.87.8,10.33,1C207.2,326.69,205.75,323.7,204.4,320.7Z" style="fill:#263238;stroke:#263238;stroke-linecap:round;stroke-linejoin:round;stroke-width:1.5px"></path><path d="M214.84,321.37c-1.72,2.77-3.54,5.59-5.44,8.31,1.73.13,3.46.16,5.19.24s3.46.06,5.19.06C218,327.13,216.39,324.25,214.84,321.37Z" style="fill:#263238;stroke:#263238;stroke-linecap:round;stroke-linejoin:round;stroke-width:1.5px"></path><path d="M225.28,321.3c-1.51,2.94-3.12,5.79-4.83,8.67,1.73,0,3.46,0,5.19-.13s3.46-.16,5.19-.31C228.89,326.84,227,324.08,225.28,321.3Z" style="fill:#263238;stroke:#263238;stroke-linecap:round;stroke-linejoin:round;stroke-width:1.5px"></path><path d="M235.69,320.48c-1.3,3-2.69,6-4.19,9,3.45-.27,6.89-.68,10.32-1.19C239.68,325.7,237.64,323.16,235.69,320.48Z" style="fill:#263238;stroke:#263238;stroke-linecap:round;stroke-linejoin:round;stroke-width:1.5px"></path><path d="M246,318.91c-1.07,3.07-2.24,6.21-3.51,9.28,1.71-.25,3.41-.59,5.12-.89s3.4-.72,5.09-1.07C250.37,323.81,248.14,321.4,246,318.91Z" style="fill:#263238;stroke:#263238;stroke-linecap:round;stroke-linejoin:round;stroke-width:1.5px"></path><path d="M256.15,316.56q-1.24,4.72-2.79,9.52l5-1.28,5-1.46C260.88,321.11,258.47,318.86,256.15,316.56Z" style="fill:#263238;stroke:#263238;stroke-linecap:round;stroke-linejoin:round;stroke-width:1.5px"></path><path d="M173.77,301.76c-.06,3.92-.49,7.21-.56,9.07,1.07.29-.45-.38,2.9.57C175.22,308.19,174.43,305,173.77,301.76Z" style="fill:#263238;stroke:#263238;stroke-linecap:round;stroke-linejoin:round;stroke-width:1.5px"></path><path d="M183.79,304.58q-3.37,3.57-7,7c3.34.93,6.71,1.73,10.1,2.43C185.74,310.88,184.72,307.72,183.79,304.58Z" style="fill:#263238;stroke:#263238;stroke-linecap:round;stroke-linejoin:round;stroke-width:1.5px"></path><path d="M194,306.66c-2.09,2.55-4.26,5-6.52,7.49,3.39.67,6.8,1.27,10.23,1.72C196.42,312.81,195.18,309.75,194,306.66Z" style="fill:#263238;stroke:#263238;stroke-linecap:round;stroke-linejoin:round;stroke-width:1.5px"></path><path d="M204.4,308c-1.91,2.69-3.9,5.29-6,7.92,3.43.42,6.87.8,10.33,1C207.2,314,205.75,311,204.4,308Z" style="fill:#263238;stroke:#263238;stroke-linecap:round;stroke-linejoin:round;stroke-width:1.5px"></path><path d="M214.84,308.71c-1.72,2.77-3.54,5.59-5.44,8.3,1.73.13,3.46.16,5.19.24s3.46.07,5.19.07C218,314.47,216.39,311.59,214.84,308.71Z" style="fill:#263238;stroke:#263238;stroke-linecap:round;stroke-linejoin:round;stroke-width:1.5px"></path><path d="M225.28,308.63c-1.51,2.94-3.12,5.8-4.83,8.68,1.73,0,3.46,0,5.19-.14s3.46-.15,5.19-.31C228.89,314.17,227,311.41,225.28,308.63Z" style="fill:#263238;stroke:#263238;stroke-linecap:round;stroke-linejoin:round;stroke-width:1.5px"></path><path d="M235.69,307.81c-1.3,3-2.69,6.05-4.19,9,3.45-.26,6.89-.67,10.32-1.19C239.68,313,237.64,310.49,235.69,307.81Z" style="fill:#263238;stroke:#263238;stroke-linecap:round;stroke-linejoin:round;stroke-width:1.5px"></path><path d="M246,306.24c-1.07,3.07-2.24,6.21-3.51,9.29,1.71-.26,3.41-.6,5.12-.9s3.4-.71,5.09-1.07C250.37,311.14,248.14,308.74,246,306.24Z" style="fill:#263238;stroke:#263238;stroke-linecap:round;stroke-linejoin:round;stroke-width:1.5px"></path><path d="M256.15,303.89q-1.24,4.73-2.79,9.53l5-1.28,5-1.47C260.88,308.44,258.47,306.19,256.15,303.89Z" style="fill:#263238;stroke:#263238;stroke-linecap:round;stroke-linejoin:round;stroke-width:1.5px"></path><path d="M242,154.25l-32.44-2.11-16,4.49c1.41,5.23,3.69,12.72,6.07,16.58,3.87,6.3,12.59,10.42,12.59,10.42l4.12,31,9.45.49,5.33-31.49s11.14-6.3,15.74-14.3a32.54,32.54,0,0,0,3.53-10Z" style="fill:#263238;stroke:#263238;stroke-linecap:round;stroke-linejoin:round"></path><line x1="261.83" y1="252.02" x2="260.57" y2="220.21" style="fill:none;stroke:#263238;stroke-linecap:round;stroke-linejoin:round"></line><line x1="179.51" y1="218.54" x2="179.95" y2="213.73" style="fill:none;stroke:#263238;stroke-linecap:round;stroke-linejoin:round"></line><line x1="176.41" y1="252.3" x2="179.07" y2="223.38" style="fill:none;stroke:#263238;stroke-linecap:round;stroke-linejoin:round"></line><path d="M208.41,133.06s-4,24.08-3.57,25.72,1.83,9,8.19,13.08l6.36,4.09s.42,21.58,1.27,21.9a4.75,4.75,0,0,0,2.4-.16l.71-21.25s3.81,0,8.9-5.07,6.5-15.53,6.5-15.53l-3-22.57Z" style="fill:#a8a8a8;stroke:#263238;stroke-linecap:round;stroke-linejoin:round"></path><path d="M244.92,122.75s2.25-3.23,3.8-1.64,1.07,6,0,8.4A25.38,25.38,0,0,1,244.6,135Z" style="fill:#a8a8a8;stroke:#263238;stroke-linecap:round;stroke-linejoin:round"></path><path d="M207.47,117.73s-1.33-3.71-3.23-2.59-2.63,5.55-2.22,8.11a25.63,25.63,0,0,0,2.53,6.36Z" style="fill:#a8a8a8;stroke:#263238;stroke-linecap:round;stroke-linejoin:round"></path><path d="M221.26,90.21S215,91.64,211.72,94s-5.38,12.07-5.23,16.61.08,7.78.08,7.78-2.12,9.25-1.57,13.59,1.4,7.34,3.59,10.64,4.8,11.93,10.1,13.52,10.11.35,11.51-.71,5.41-6.68,7.31-8.68,4.18-4.08,5.73-8.14,2.81-10.66,2.34-12.73-.93-3.38-.61-4.85,2.11-8.24,2.71-12.68-1.07-9.8-4.56-12.77S229.64,88.45,221.26,90.21Z" style="fill:#a8a8a8;stroke:#263238;stroke-linecap:round;stroke-linejoin:round"></path><path d="M243.12,95.53c-3.49-3-13.48-7.08-21.86-5.32,0,0-6.22,1.43-9.54,3.74s-5.38,12.07-5.23,16.61.08,7.78.08,7.78a33.11,33.11,0,0,1,1.85-8.15c1.58-4.31.25-5.61,1.93-8.77s7.74-5.36,7.74-5.36,6.29,1.72,9.83,2.44,9.5.27,10.11.36,4.68,2.51,5.49,4.87.43,6.2,0,10,.39,6.45.22,7.68.58,1.51,1.14,1.3A5,5,0,0,1,245,121c.32-1.46,2.11-8.24,2.71-12.68S246.61,98.5,243.12,95.53Z" style="fill:#263238;stroke:#263238;stroke-linecap:round;stroke-linejoin:round"></path><path d="M218.67,122.91c-.15,1.09-.87,1.9-1.62,1.8s-1.23-1.07-1.08-2.16.87-1.91,1.61-1.81S218.81,121.81,218.67,122.91Z" style="fill:#263238"></path><path d="M232,124.69c-.15,1.1-.87,1.91-1.61,1.81s-1.23-1.07-1.08-2.17.87-1.9,1.61-1.8S232.15,123.6,232,124.69Z" style="fill:#263238"></path><path d="M212.26,114.68l.44,2.08a16.71,16.71,0,0,1,3.6-1,12.84,12.84,0,0,1,5,.1l.46-2.39a36.92,36.92,0,0,0-5.49-1C214.16,112.34,212.26,114.68,212.26,114.68Z" style="fill:#263238;stroke:#263238;stroke-linecap:round;stroke-linejoin:round"></path><path d="M237.65,118.09l-1,1.89a16.85,16.85,0,0,0-3.22-1.88,12.94,12.94,0,0,0-4.89-1.23l.19-2.43a37.54,37.54,0,0,1,5.57.46C236.44,115.32,237.65,118.09,237.65,118.09Z" style="fill:#263238;stroke:#263238;stroke-linecap:round;stroke-linejoin:round"></path><path d="M219,129.44a5,5,0,0,0-2.72,4.12c-.1,2.87,3.26,4.76,7.55,5.05s6.24-2.34,6.18-4.08a12.3,12.3,0,0,0-1.45-4.24" style="fill:none;stroke:#263238;stroke-linecap:round;stroke-linejoin:round"></path><path d="M213.75,140.16a14.05,14.05,0,0,0,8.68,3.93c2.36.2,7.16.13,8.81-1.88" style="fill:none;stroke:#263238;stroke-linecap:round;stroke-linejoin:round"></path><path d="M307.87,103.69a22.75,22.75,0,0,0-17.77-10c-12.28-.69-13.23,1.85-11.91,2.53l1.33.68s-10.35,1.85-14.84,8.16-2,7.12-2,7.12-6.73,11.19-5.21,15,3.32,3.49,3.32,3.49-5,8.31-1.27,13.44,5.36,1.83,5.36,1.83-1.46,6.28,4.88,5.71,6.85-1.42,6.85-1.42a5.07,5.07,0,0,0,1.8,5.46,5.85,5.85,0,0,0,6,.82s14,5.45,19.17,4a53.14,53.14,0,0,0,11.16-4.37,38.54,38.54,0,0,1,4.65-2.16s.13,2.27,2.1,1.49,6.18-6.44,6.35-6.91-3.43,4.75,4.38.79,7.68-10.28,7.68-10.28,2.91,1.87,4.2.11-2.19-10-2.19-10,2.88.58,2.65-2.68-10.84-13.45-10.84-13.45,2.37-.3.85-3.52-4.54-4.93-8.27-5.44a31.7,31.7,0,0,0-8.42.36s4.79-2.77-1.21-3.15S307.87,103.69,307.87,103.69Z" style="fill:#263238;stroke:#263238;stroke-linecap:round;stroke-linejoin:round"></path><path d="M309.1,463.11s-1.23,6.52.2,7.95,7.84,2,11.31,1.22,5.81-1.12,7-3.87-.75-8.91-.75-8.91l-16.57.35Z" style="fill:#263238;stroke:#263238;stroke-linecap:round;stroke-linejoin:round"></path><path d="M301.47,375.42s3.2,18.31,6.58,35.73a193.15,193.15,0,0,1,3.55,35.56c0,4.08-2,10.13-2.13,14.75s-1.78,6.75,1.42,8.35,4.62-.71,4.62-.71.71.89,3.56.89,4.62-.35,6-1.78,2.67-5.51,1.78-8.71S323,445.64,323,442.08a176.56,176.56,0,0,1,2.66-22.75c1.71-9.72,3.92-17.06,2.67-27.55s-1.95-19.91-1.95-19.91Z" style="fill:#a8a8a8;stroke:#263238;stroke-linecap:round;stroke-linejoin:round"></path><path d="M311.71,444.59s8.6-2.51,11.27-.55l.37-6.84s-6.42-4.54-12,.1Z" style="fill:#263238;stroke:#263238;stroke-linecap:round;stroke-linejoin:round"></path><path d="M310.22,456.58a9.4,9.4,0,0,1,4.2,2.72c1.6,2,1.23,8.89,1.23,8.89s.87-5.93,3.71-8.52,6.91-2,6.91-2l-2-6.42a24.38,24.38,0,0,0-7.29-1,26.67,26.67,0,0,0-5.93.74Z" style="fill:#263238;stroke:#263238;stroke-linecap:round;stroke-linejoin:round"></path><line x1="319.97" y1="464.86" x2="319.07" y2="469.99" style="fill:#fff;stroke:#263238;stroke-linecap:round;stroke-linejoin:round"></line><line x1="323.31" y1="464.73" x2="323.31" y2="468.81" style="fill:#fff;stroke:#263238;stroke-linecap:round;stroke-linejoin:round"></line><line x1="325.28" y1="463" x2="325.78" y2="466.58" style="fill:#fff;stroke:#263238;stroke-linecap:round;stroke-linejoin:round"></line><path d="M263.43,277.27s-1.65,20-1,41.72-2.95,48.94-2.95,48.94,30.21,12.81,49.59,11.16,30.55-7.55,30.55-7.55-.33-22.34.33-29.89,7.55-32.52,8.54-44.67.65-14.78.65-16.42S264.41,271,264.41,271Z" style="fill:#fff;stroke:#263238;stroke-linecap:round;stroke-linejoin:round"></path><path d="M268.75,336c-2,1.4-4.13,2.76-6.27,4.05,1.55.52,3.12,1,4.7,1.42s3.14.91,4.74,1.28C270.79,340.57,269.74,338.3,268.75,336Z" style="fill:#92E3A9;stroke:#263238;stroke-linecap:round;stroke-linejoin:round"></path><path d="M278.51,338.47c-1.95,1.57-3.93,3-6,4.46,3.16.84,6.38,1.43,9.58,2.09Q280.22,341.72,278.51,338.47Z" style="fill:#92E3A9;stroke:#263238;stroke-linecap:round;stroke-linejoin:round"></path><path d="M288.41,340.26c-1.83,1.64-3.73,3.26-5.68,4.87l4.84.77,2.43.37,2.43.27-2.06-3.09C289.71,342.4,289.05,341.32,288.41,340.26Z" style="fill:#92E3A9;stroke:#263238;stroke-linecap:round;stroke-linejoin:round"></path><path d="M298.41,341.46c-1.73,1.73-3.51,3.44-5.35,5.15l4.88.53,4.89.28Q300.54,344.44,298.41,341.46Z" style="fill:#92E3A9;stroke:#263238;stroke-linecap:round;stroke-linejoin:round"></path><path d="M308.47,341.93c-.81.94-1.63,1.91-2.46,2.82l-2.55,2.71,2.45.14c.82,0,1.64,0,2.45,0h4.91C311.61,345.74,310,343.83,308.47,341.93Z" style="fill:#92E3A9;stroke:#263238;stroke-linecap:round;stroke-linejoin:round"></path><path d="M318.52,341.75c-1.48,2-3,4-4.62,5.89,1.64.05,3.27-.13,4.9-.2l4.9-.27Q321,344.47,318.52,341.75Z" style="fill:#92E3A9;stroke:#263238;stroke-linecap:round;stroke-linejoin:round"></path><path d="M328.54,340.91c-1.34,2.06-2.74,4.18-4.21,6.22,3.26-.34,6.5-.77,9.75-1.15Q331.23,343.46,328.54,340.91Z" style="fill:#92E3A9;stroke:#263238;stroke-linecap:round;stroke-linejoin:round"></path><path d="M338.48,339.38c-1.2,2.16-2.45,4.33-3.77,6.51l4.67-1.21c.42-.11.4-.53.37-1C339.67,342.32,340.81,340.72,338.48,339.38Z" style="fill:#92E3A9;stroke:#263238;stroke-linecap:round;stroke-linejoin:round"></path><path d="M268.33,327.27c-2,1.41-2.75,2.81-4.89,4.09,1.55.53,1.74.95,3.32,1.39s3.15.9,4.74,1.27C270.37,331.81,269.32,329.54,268.33,327.27Z" style="fill:#92E3A9;stroke:#263238;stroke-linecap:round;stroke-linejoin:round"></path><path d="M278.09,329.72c-1.95,1.57-3.93,3-6,4.46,3.17.83,6.38,1.42,9.58,2.08Q279.82,333,278.09,329.72Z" style="fill:#92E3A9;stroke:#263238;stroke-linecap:round;stroke-linejoin:round"></path><path d="M288,331.51c-1.84,1.63-3.73,3.26-5.68,4.87l4.84.77,2.42.37,2.44.27L290,334.7C289.29,333.64,288.64,332.57,288,331.51Z" style="fill:#92E3A9;stroke:#263238;stroke-linecap:round;stroke-linejoin:round"></path><path d="M298,332.7c-1.73,1.74-3.51,3.44-5.35,5.16l4.87.52,4.9.29Q300.11,335.69,298,332.7Z" style="fill:#92E3A9;stroke:#263238;stroke-linecap:round;stroke-linejoin:round"></path><path d="M308.05,333.17c-.81.94-1.63,1.92-2.46,2.83l-2.54,2.7,2.44.14c.82.05,1.64,0,2.46,0l4.9,0C311.19,337,309.59,335.08,308.05,333.17Z" style="fill:#92E3A9;stroke:#263238;stroke-linecap:round;stroke-linejoin:round"></path><path d="M318.11,333c-1.48,2-3,4-4.63,5.89,1.64.05,3.27-.13,4.91-.2l4.9-.28Q320.61,335.71,318.11,333Z" style="fill:#92E3A9;stroke:#263238;stroke-linecap:round;stroke-linejoin:round"></path><path d="M328.13,332.16c-1.35,2.06-2.75,4.18-4.21,6.22,3.25-.34,6.5-.77,9.75-1.15Q330.8,334.7,328.13,332.16Z" style="fill:#92E3A9;stroke:#263238;stroke-linecap:round;stroke-linejoin:round"></path><path d="M338.06,330.63q-1.79,3.24-3.77,6.51l5.72-.52C340.77,334.91,340,332.34,338.06,330.63Z" style="fill:#92E3A9;stroke:#263238;stroke-linecap:round;stroke-linejoin:round"></path><path d="M339.65,348.33c-39.46,6.7-65.12-.43-77.76-5.87-.88,14-2.4,25.47-2.4,25.47s30.21,12.81,49.59,11.16,30.55-7.55,30.55-7.55S339.43,357.89,339.65,348.33Z" style="fill:#92E3A9;stroke:#263238;stroke-linecap:round;stroke-linejoin:round"></path><path d="M290,172.08a39.3,39.3,0,0,1-9.76,3c-5.94,1.06-9.54,0-12.09,7s-5.3,36.69-6.15,44.11,5.73,13.15,6.15,15.27S266.46,256.92,265,261s-6.36,18.66-6.36,18.66S272,290.85,300,292.34s42.21,0,45-1.06a41.19,41.19,0,0,1,6.78-1.7s-4.24-29.48-6.36-38.6-8.06-17-7-25.88,6.58-33.29,5.09-36.9-4-5.51-9.75-8.06-10.61-5.09-11.67-6.36-1.69-2.12-4-2.34-4.88-.21-4.88-.21Z" style="fill:#fff;stroke:#263238;stroke-linecap:round;stroke-linejoin:round"></path><polygon points="272.87 178.26 269.58 179.36 269.75 182.26 272.87 178.26" style="fill:#92E3A9;stroke:#263238;stroke-linecap:round;stroke-linejoin:round"></polygon><polygon points="276.71 184.57 269.94 182.75 272.81 190.4 276.71 184.57" style="fill:#92E3A9;stroke:#263238;stroke-linecap:round;stroke-linejoin:round"></polygon><path d="M279.76,192.72,273,190.89l2.32,6.2.15.95a10.54,10.54,0,0,1,1.56-1.4,3.49,3.49,0,0,0,.71-.9l.68-1Z" style="fill:#92E3A9;stroke:#263238;stroke-linecap:round;stroke-linejoin:round"></path><polygon points="281.79 201.74 275.54 198.56 276.77 206.64 281.79 201.74" style="fill:#92E3A9;stroke:#263238;stroke-linecap:round;stroke-linejoin:round"></polygon><polygon points="283.09 210.34 276.85 207.16 278.07 215.23 283.09 210.34" style="fill:#92E3A9;stroke:#263238;stroke-linecap:round;stroke-linejoin:round"></polygon><polygon points="284.4 218.94 278.15 215.75 279.38 223.83 284.4 218.94" style="fill:#92E3A9;stroke:#263238;stroke-linecap:round;stroke-linejoin:round"></polygon><polygon points="285.71 227.53 279.46 224.35 280.69 232.43 285.71 227.53" style="fill:#92E3A9;stroke:#263238;stroke-linecap:round;stroke-linejoin:round"></polygon><polygon points="287.02 236.13 280.77 232.95 282 241.03 287.02 236.13" style="fill:#92E3A9;stroke:#263238;stroke-linecap:round;stroke-linejoin:round"></polygon><polygon points="288.33 244.73 282.08 241.55 283.31 249.63 288.33 244.73" style="fill:#92E3A9;stroke:#263238;stroke-linecap:round;stroke-linejoin:round"></polygon><polygon points="289.64 253.33 283.39 250.15 284.62 258.23 289.64 253.33" style="fill:#92E3A9;stroke:#263238;stroke-linecap:round;stroke-linejoin:round"></polygon><polygon points="325.51 180.51 332.47 179.71 329.74 185.99 325.51 180.51" style="fill:#92E3A9;stroke:#263238;stroke-linecap:round;stroke-linejoin:round"></polygon><polygon points="322.52 187.25 329.48 186.45 325.52 193.59 322.52 187.25" style="fill:#92E3A9;stroke:#263238;stroke-linecap:round;stroke-linejoin:round"></polygon><path d="M318.29,194.85l7-.8-3.21,5.78-.29.92a10.86,10.86,0,0,0-1.33-1.61,3.64,3.64,0,0,1-.58-1l-.52-1.1Z" style="fill:#92E3A9;stroke:#263238;stroke-linecap:round;stroke-linejoin:round"></path><polygon points="314.96 203.48 321.61 201.25 319.2 209.06 314.96 203.48" style="fill:#92E3A9;stroke:#263238;stroke-linecap:round;stroke-linejoin:round"></polygon><polygon points="312.39 211.79 319.04 209.56 316.63 217.37 312.39 211.79" style="fill:#92E3A9;stroke:#263238;stroke-linecap:round;stroke-linejoin:round"></polygon><polygon points="309.83 220.1 316.48 217.87 314.07 225.68 309.83 220.1" style="fill:#92E3A9;stroke:#263238;stroke-linecap:round;stroke-linejoin:round"></polygon><polygon points="307.26 228.41 313.91 226.19 311.5 233.99 307.26 228.41" style="fill:#92E3A9;stroke:#263238;stroke-linecap:round;stroke-linejoin:round"></polygon><polygon points="304.7 236.72 311.35 234.5 308.94 242.3 304.7 236.72" style="fill:#92E3A9;stroke:#263238;stroke-linecap:round;stroke-linejoin:round"></polygon><polygon points="302.13 245.03 308.78 242.81 306.37 250.61 302.13 245.03" style="fill:#92E3A9;stroke:#263238;stroke-linecap:round;stroke-linejoin:round"></polygon><polygon points="299.57 253.34 306.22 251.12 303.81 258.92 299.57 253.34" style="fill:#92E3A9;stroke:#263238;stroke-linecap:round;stroke-linejoin:round"></polygon><path d="M274.79,287.73c-.1-6.14-1.15-20.53-8.13-32.68-.16.47-.35,1.06-.56,1.73A35.81,35.81,0,0,1,265,261c-.34.9-.84,2.35-1.43,4.05-2,6.47-4.1,13.57-4.51,14.94C260.47,281,265.66,284.65,274.79,287.73Z" style="fill:#263238;stroke:#263238;stroke-linecap:round;stroke-linejoin:round"></path><path d="M347.37,261.54a18.17,18.17,0,0,0-10.6-1.27c-12.57,2.26-24.21,21.77-29.69,32.39,23.31.9,35.34-.42,37.86-1.38a41.19,41.19,0,0,1,6.78-1.7S349.43,273.6,347.37,261.54Z" style="fill:#263238;stroke:#263238;stroke-linecap:round;stroke-linejoin:round"></path><path d="M338.85,264.43c-11.11,2-21.49,17.47-27.54,28.38,20.54.59,31.27-.63,33.63-1.53a41.19,41.19,0,0,1,6.78-1.7s-1.87-13-3.75-24.44A18,18,0,0,0,338.85,264.43Z" style="fill:#92E3A9;stroke:#263238;stroke-linecap:round;stroke-linejoin:round"></path><path d="M322,173.78c-1.06-1.28-1.69-2.12-4-2.34s-4.88-.21-4.88-.21l-23.11.85a39.3,39.3,0,0,1-9.76,3,10,10,0,0,0,1.06,5.73,63.68,63.68,0,0,0,5.51,6.57l5.34,50.26,5.52,1.27,7-47.5s10.82-2.76,15.27-5.94c2.95-2.11,5.53-6,7-8.54A20.25,20.25,0,0,1,322,173.78Z" style="fill:#263238;stroke:#263238;stroke-linecap:round;stroke-linejoin:round"></path><path d="M291.49,156s.85,11.45-.64,14.21a16.9,16.9,0,0,1-4.45,4.88s1.27,3,2.33,4.88,4.67,4,4.67,4l1.78,17,5.64-15.72s4,.42,10-4.45,7.85-7.64,7.85-7.64-2.33.64-4-6.57,0-10.64-.85-11.79S298.49,161.48,291.49,156Z" style="fill:#a8a8a8;stroke:#263238;stroke-linecap:round;stroke-linejoin:round"></path><path d="M301.54,160.07c.67-1-10.69,10.1-10.69,10.1l.64-14.21Z" style="fill:#263238;stroke:#263238;stroke-linecap:round;stroke-linejoin:round"></path><path d="M304.3,111.93a28.15,28.15,0,0,0-16,5.85c-7.19,5.83-10.86,10.2-10.29,13.08s2.46,19.71,5.1,25.11,12,10,13.76,10.7a5.54,5.54,0,0,0,5.29-.16c2-1.09,8.62-6.47,10.73-9.59a25.49,25.49,0,0,0,3.74-9.87,31.53,31.53,0,0,1,.65-4.34,4.8,4.8,0,0,0,2.92-2.17c1.26-1.9.79-4.95.79-4.95l-5-.92s.85-.64-1.25-6.18-7.11-9.47-8.47-11.44A16.73,16.73,0,0,1,304.3,111.93Z" style="fill:#a8a8a8;stroke:#263238;stroke-linecap:round;stroke-linejoin:round"></path><path d="M291.58,141.33s-2.48,3.35-1.23,4.34,6.85,1.46,8-.13-.7-4.58-.7-4.58" style="fill:none;stroke:#263238;stroke-linecap:round;stroke-linejoin:round"></path><path d="M288.21,150.38a34.4,34.4,0,0,0,7.5,0,30.66,30.66,0,0,0,7.87-2.54s-3.77,6.85-7.13,9S288.21,150.38,288.21,150.38Z" style="fill:#fff;stroke:#263238;stroke-linecap:round;stroke-linejoin:round"></path><path d="M302.88,135.94c.13,1.23-.36,2.29-1.09,2.37s-1.43-.86-1.56-2.09.36-2.29,1.09-2.36S302.75,134.71,302.88,135.94Z" style="fill:#263238"></path><path d="M289.65,137.46c.3,1.2,0,2.31-.75,2.49s-1.53-.65-1.83-1.85,0-2.31.75-2.49S289.35,136.26,289.65,137.46Z" style="fill:#263238"></path><path d="M283.31,133.7s2.21-2.71,4.92-1.65" style="fill:none;stroke:#263238;stroke-linecap:round;stroke-linejoin:round;stroke-width:2px"></path><path d="M298.37,131.11a4.7,4.7,0,0,1,6.65,1.23" style="fill:none;stroke:#263238;stroke-linecap:round;stroke-linejoin:round;stroke-width:2px"></path><path d="M335.61,238l3,14s-.85,12.72,1.48,19.72,14.21,33.94,14.63,37.12a78,78,0,0,0,1.49,8.91c.64,2.33,5.3,9.33,5.73,10s2.54,1.27,3-.64-2.12-7.21-2.12-7.21l8.7,5.3s5.51,4,7,3.61,2.76-1.91,2.76-2.76-1.91-7.85-3.19-9.76-14.84-10.18-14.84-10.18-1.91-31.6-4.24-41.14-3.82-17.61-4-18.24-1.28-12.94-1.06-13.58S335.61,238,335.61,238Z" style="fill:#a8a8a8;stroke:#263238;stroke-linecap:round;stroke-linejoin:round"></path><path d="M371,316.2s4.14,3.41,5.28,4.55,3.31,6.82,3.31,6.82" style="fill:none;stroke:#263238;stroke-linecap:round;stroke-linejoin:round"></path><path d="M373.87,314.75s3.1,2.38,3.83,3.83S381,327,381,327" style="fill:none;stroke:#263238;stroke-linecap:round;stroke-linejoin:round"></path><path d="M365.59,316.4l7,4.76s6.34,4.8,6.62,5.17c.41.56-.94,1-2.08,1s-14-7.23-15.14-8" style="fill:#a8a8a8;stroke:#263238;stroke-linecap:round;stroke-linejoin:round"></path><path d="M324.36,208.14l3.61,35.2L357,235.07s-8.91-41.57-11.24-46.66-7.85-6.15-10.61-5.94" style="fill:#fff;stroke:#263238;stroke-linecap:round;stroke-linejoin:round"></path><path d="M328,243.34,357,235.07s-1.44-6.71-3.31-15.07l-27.34,7.79Z" style="fill:#263238;stroke:#263238;stroke-linecap:round;stroke-linejoin:round"></path><path d="M328,243.34,357,235.07s-1.07-5-2.56-11.69l-27.71,8.18Z" style="fill:#92E3A9;stroke:#263238;stroke-linecap:round;stroke-linejoin:round"></path><path d="M261.89,342.46c-.1,1.63-.21,3.21-.33,4.75a119.84,119.84,0,0,0,37.52,8.05,210.06,210.06,0,0,0,40.5-2.71c0-1.46,0-2.88.07-4.22C300.19,355,274.53,347.9,261.89,342.46Z" style="fill:#263238;stroke:#263238;stroke-linecap:round;stroke-linejoin:round"></path><path d="M271.71,286.61c.05-3.27-.25-15.52-6.73-25.66-1.49,4-6.36,18.66-6.36,18.66S262.91,283.22,271.71,286.61Z" style="fill:#92E3A9;stroke:#263238;stroke-linecap:round;stroke-linejoin:round"></path><path d="M160.46,313.63a8.72,8.72,0,0,1,1-2c.64-.9-.38-1.67-1.53-.9a5,5,0,0,0-1.66,2.3Z" style="fill:#a8a8a8;stroke:#263238;stroke-linecap:round;stroke-linejoin:round"></path><path d="M165,318.77c-.41-1.43-1.43-4.7-2.14-5.11a4.93,4.93,0,0,0-2.08-.22c-.57-.17-2.35-.63-3.28.25s1,1.47,2.57,1.75v.05c-1.21-.09-4-.19-3.88.8s2.14,1.66,3.68,1.68c-1.35.21-3.41.6-3.41,1.11,0,.76.92,1.63,3.16,1.77-1.08.22-2.19.58-2.32,1.08-.27,1,.27,1.41,1.22,1.41a18.41,18.41,0,0,0,3.16-.48l.14,0,.83-.07c1-.1,1.94-.3,2.25-1A4,4,0,0,0,165,318.77Z" style="fill:#a8a8a8;stroke:#263238;stroke-linecap:round;stroke-linejoin:round"></path><path d="M160.1,315.49a31.66,31.66,0,0,1,3.7.62" style="fill:none;stroke:#263238;stroke-linecap:round;stroke-linejoin:round"></path><line x1="159.9" y1="317.97" x2="165.03" y2="318.77" style="fill:none;stroke:#263238;stroke-linecap:round;stroke-linejoin:round"></line><line x1="159.65" y1="320.85" x2="164.11" y2="320.81" style="fill:none;stroke:#263238;stroke-linecap:round;stroke-linejoin:round"></line></g></svg>
